<svg width="77" height="14" viewBox="0 0 77 14" fill="none" xmlns="http://www.w3.org/2000/svg">
<g filter="url(#filter0_d_355_597)">
<path d="M3.81602 13.6799C2.61602 13.6799 1.68002 13.3359 1.00802 12.6479C0.33602 11.9599 1.95652e-05 11.0319 1.95652e-05 9.86394C1.95652e-05 8.83994 0.33602 7.99994 1.00802 7.34394C1.69602 6.68794 2.57602 6.35994 3.64802 6.35994C4.68802 6.35994 5.52002 6.66394 6.14402 7.27194C6.76802 7.86394 7.08002 8.59994 7.08002 9.47994C7.08002 9.83194 6.98402 10.0959 6.79202 10.2719C6.61602 10.4479 6.38402 10.5359 6.09602 10.5359H1.92002C1.76002 10.5359 1.70402 10.6239 1.75202 10.7999C1.88002 11.2479 2.13602 11.5999 2.52002 11.8559C2.92002 12.0959 3.36802 12.2159 3.86402 12.2159C4.23202 12.2159 4.58402 12.1679 4.92002 12.0719C5.27202 11.9759 5.57602 11.8319 5.83202 11.6399C5.91202 11.5759 6.01602 11.5439 6.14402 11.5439C6.32002 11.5439 6.48002 11.6239 6.62402 11.7839C6.76802 11.9279 6.84002 12.1039 6.84002 12.3119C6.84002 12.4079 6.82402 12.5039 6.79202 12.5999C6.76002 12.6959 6.68802 12.7919 6.57602 12.8879C6.16002 13.1919 5.71202 13.3999 5.23202 13.5119C4.76802 13.6239 4.29602 13.6799 3.81602 13.6799ZM5.20802 9.28794C5.30402 9.28794 5.35202 9.23994 5.35202 9.14394C5.35202 8.77594 5.18402 8.45594 4.84802 8.18394C4.52802 7.91194 4.12802 7.77594 3.64802 7.77594C3.23202 7.77594 2.83202 7.88794 2.44802 8.11194C2.08002 8.33594 1.85602 8.63194 1.77602 8.99994C1.77602 8.99994 1.77602 9.00794 1.77602 9.02394C1.76002 9.08794 1.75202 9.14394 1.75202 9.19194C1.76802 9.23994 1.84002 9.26394 1.96802 9.26394L5.20802 9.28794ZM11.7351 13.6799C11.5271 13.6799 11.3351 13.6159 11.1591 13.4879C10.9991 13.3599 10.9191 13.1759 10.9191 12.9359V7.29594C10.9191 7.02394 10.9991 6.82394 11.1591 6.69594C11.3351 6.55194 11.5271 6.47994 11.7351 6.47994C11.8951 6.47994 12.0471 6.51994 12.1911 6.59994C12.3351 6.66394 12.4391 6.78394 12.5031 6.95994C12.5351 7.05594 12.5511 7.14394 12.5511 7.22394C12.7911 6.96794 13.1031 6.75994 13.4871 6.59994C13.8711 6.43994 14.2471 6.35994 14.6151 6.35994C15.6551 6.35994 16.4231 6.77594 16.9191 7.60794C17.1111 7.27194 17.4231 6.98394 17.8551 6.74394C18.3031 6.48794 18.8471 6.35994 19.4871 6.35994C20.3511 6.35994 21.0391 6.64794 21.5511 7.22394C22.0631 7.79994 22.3191 8.64794 22.3191 9.76794V12.9359C22.3191 13.1759 22.2311 13.3599 22.0551 13.4879C21.8791 13.6159 21.6951 13.6799 21.5031 13.6799C21.2951 13.6799 21.1031 13.6159 20.9271 13.4879C20.7671 13.3599 20.6871 13.1759 20.6871 12.9359V9.91194C20.6871 8.53594 20.1751 7.84794 19.1511 7.84794C18.5751 7.84794 18.1591 7.99994 17.9031 8.30394C17.6471 8.60794 17.4871 8.96794 17.4231 9.38394V12.9359C17.4231 13.1759 17.3351 13.3599 17.1591 13.4879C16.9831 13.6159 16.7991 13.6799 16.6071 13.6799C16.3991 13.6799 16.2071 13.6159 16.0311 13.4879C15.8711 13.3599 15.7911 13.1759 15.7911 12.9359V9.91194C15.7911 9.20794 15.6551 8.68794 15.3831 8.35194C15.1111 8.01594 14.7431 7.84794 14.2791 7.84794C13.5911 7.84794 13.1271 8.06394 12.8871 8.49594C12.6631 8.91194 12.5511 9.37594 12.5511 9.88794V12.9359C12.5511 13.1759 12.4631 13.3599 12.2871 13.4879C12.1271 13.6159 11.9431 13.6799 11.7351 13.6799ZM29.6104 13.6799C28.9224 13.6799 28.3064 13.5199 27.7624 13.1999C27.2184 12.8799 26.7944 12.4399 26.4904 11.8799C26.1864 11.3039 26.0344 10.6639 26.0344 9.95994C26.0344 9.27194 26.1864 8.65594 26.4904 8.11194C26.7944 7.56794 27.2184 7.14394 27.7624 6.83994C28.3064 6.51994 28.9224 6.35994 29.6104 6.35994C30.0584 6.35994 30.4584 6.43994 30.8104 6.59994C31.1624 6.74394 31.4664 6.93594 31.7224 7.17594C31.7544 6.95194 31.8504 6.78394 32.0104 6.67194C32.1704 6.54394 32.3464 6.47994 32.5384 6.47994C32.7464 6.47994 32.9304 6.55194 33.0904 6.69594C33.2664 6.82394 33.3544 7.02394 33.3544 7.29594V12.9359C33.3544 13.1759 33.2664 13.3599 33.0904 13.4879C32.9304 13.6159 32.7464 13.6799 32.5384 13.6799C32.3304 13.6799 32.1384 13.6159 31.9624 13.4879C31.8024 13.3599 31.7224 13.1759 31.7224 12.9359V12.8399C31.4664 13.0959 31.1624 13.2959 30.8104 13.4399C30.4584 13.5999 30.0584 13.6799 29.6104 13.6799ZM29.7544 12.1919C30.3624 12.1919 30.8424 11.9919 31.1944 11.5919C31.5464 11.1759 31.7224 10.6319 31.7224 9.95994C31.7224 9.31994 31.5464 8.80794 31.1944 8.42394C30.8424 8.03994 30.3624 7.84794 29.7544 7.84794C29.1304 7.84794 28.6264 8.03994 28.2424 8.42394C27.8584 8.80794 27.6664 9.31994 27.6664 9.95994C27.6664 10.6319 27.8584 11.1759 28.2424 11.5919C28.6264 11.9919 29.1304 12.1919 29.7544 12.1919ZM38.4028 13.6799C38.1948 13.6799 38.0028 13.6159 37.8268 13.4879C37.6668 13.3599 37.5868 13.1759 37.5868 12.9359V7.17594C37.5868 6.90394 37.6668 6.70394 37.8268 6.57594C38.0028 6.43194 38.1948 6.35994 38.4028 6.35994C38.6108 6.35994 38.7948 6.43194 38.9548 6.57594C39.1308 6.70394 39.2188 6.90394 39.2188 7.17594V12.9359C39.2188 13.1759 39.1308 13.3599 38.9548 13.4879C38.7948 13.6159 38.6108 13.6799 38.4028 13.6799ZM38.4268 5.03994C38.1228 5.03994 37.8588 4.94394 37.6348 4.75194C37.4268 4.54394 37.3228 4.29594 37.3228 4.00794C37.3228 3.73594 37.4268 3.50394 37.6348 3.31194C37.8588 3.10394 38.1228 2.99994 38.4268 2.99994C38.7148 2.99994 38.9628 3.10394 39.1708 3.31194C39.3788 3.50394 39.4828 3.73594 39.4828 4.00794C39.4828 4.29594 39.3788 4.54394 39.1708 4.75194C38.9628 4.94394 38.7148 5.03994 38.4268 5.03994ZM44.3882 13.6799C44.1802 13.6799 43.9882 13.6159 43.8122 13.4879C43.6522 13.3599 43.5722 13.1759 43.5722 12.9359V3.81594C43.5722 3.54394 43.6522 3.34394 43.8122 3.21594C43.9882 3.07194 44.1802 2.99994 44.3882 2.99994C44.5962 2.99994 44.7802 3.07194 44.9402 3.21594C45.1162 3.34394 45.2042 3.54394 45.2042 3.81594V12.9359C45.2042 13.1759 45.1162 13.3599 44.9402 13.4879C44.7802 13.6159 44.5962 13.6799 44.3882 13.6799ZM61.7543 7.15194C61.7543 6.92794 61.8263 6.74394 61.9703 6.59994C62.1303 6.43994 62.3303 6.35994 62.5703 6.35994C62.7943 6.35994 62.9863 6.43994 63.1463 6.59994C63.3063 6.74394 63.3863 6.92794 63.3863 7.15194V10.5359C63.3863 11.2559 63.2263 11.8479 62.9063 12.3119C62.5863 12.7759 62.1703 13.1199 61.6583 13.3439C61.1463 13.5679 60.6023 13.6799 60.0263 13.6799C59.4503 13.6799 58.9063 13.5679 58.3943 13.3439C57.8823 13.1199 57.4663 12.7759 57.1463 12.3119C56.8263 11.8479 56.6663 11.2559 56.6663 10.5359V7.15194C56.6663 6.92794 56.7383 6.74394 56.8823 6.59994C57.0423 6.43994 57.2423 6.35994 57.4823 6.35994C57.7063 6.35994 57.8983 6.43994 58.0583 6.59994C58.2183 6.74394 58.2983 6.92794 58.2983 7.15194V10.5359C58.2983 11.1279 58.4743 11.5519 58.8263 11.8079C59.1783 12.0639 59.5783 12.1919 60.0263 12.1919C60.4903 12.1919 60.8903 12.0639 61.2263 11.8079C61.5783 11.5519 61.7543 11.1279 61.7543 10.5359V7.15194ZM70.0729 13.6799C69.6089 13.6799 69.1369 13.6159 68.6569 13.4879C68.1769 13.3759 67.7529 13.1919 67.3849 12.9359C67.1929 12.7599 67.0969 12.5679 67.0969 12.3599C67.0969 12.1519 67.1769 11.9679 67.3369 11.8079C67.5129 11.6479 67.7049 11.5679 67.9129 11.5679C68.0249 11.5679 68.1369 11.5999 68.2489 11.6639C68.5369 11.8399 68.8649 11.9839 69.2329 12.0959C69.6169 12.1919 69.9769 12.2399 70.3129 12.2399C70.6329 12.2399 70.9049 12.1839 71.1289 12.0719C71.3689 11.9599 71.4889 11.7759 71.4889 11.5199C71.4889 11.2639 71.3769 11.0719 71.1529 10.9439C70.9289 10.8159 70.5449 10.7199 70.0009 10.6559C69.7769 10.6239 69.5049 10.5839 69.1849 10.5359C68.8809 10.4879 68.5769 10.3999 68.2729 10.2719C67.9689 10.1439 67.7129 9.95194 67.5049 9.69594C67.2969 9.43994 67.1929 9.09594 67.1929 8.66394C67.1929 7.95994 67.4489 7.39994 67.9609 6.98394C68.4889 6.56794 69.1929 6.35994 70.0729 6.35994C70.5849 6.35994 71.0649 6.42394 71.5129 6.55194C71.9769 6.67994 72.3209 6.83994 72.5449 7.03194C72.7209 7.17594 72.8089 7.34394 72.8089 7.53594C72.8089 7.74394 72.7369 7.92794 72.5929 8.08794C72.4489 8.24794 72.2729 8.32794 72.0649 8.32794C71.9529 8.32794 71.8489 8.30394 71.7529 8.25594C71.4969 8.11194 71.2089 8.00794 70.8889 7.94394C70.5849 7.86394 70.2889 7.82394 70.0009 7.82394C69.6649 7.82394 69.3769 7.87994 69.1369 7.99194C68.9129 8.08794 68.8009 8.24794 68.8009 8.47194C68.8009 8.63194 68.8649 8.77594 68.9929 8.90394C69.1369 9.01594 69.4969 9.11194 70.0729 9.19194C70.3449 9.22394 70.6489 9.27194 70.9849 9.33594C71.3369 9.39994 71.6729 9.50394 71.9929 9.64794C72.3129 9.77594 72.5769 9.98394 72.7849 10.2719C72.9929 10.5599 73.0969 10.9519 73.0969 11.4479C73.0969 11.9599 72.9529 12.3839 72.6649 12.7199C72.3769 13.0399 72.0009 13.2799 71.5369 13.4399C71.0889 13.5999 70.6009 13.6799 70.0729 13.6799Z" fill="#0F1A1C"/>
</g>
<defs>
<filter id="filter0_d_355_597" x="0" y="0" width="76.0969" height="13.6799" filterUnits="userSpaceOnUse" color-interpolation-filters="sRGB">
<feFlood flood-opacity="0" result="BackgroundImageFix"/>
<feColorMatrix in="SourceAlpha" type="matrix" values="0 0 0 0 0 0 0 0 0 0 0 0 0 0 0 0 0 0 127 0" result="hardAlpha"/>
<feOffset dx="2" dy="-2"/>
<feGaussianBlur stdDeviation="0.5"/>
<feComposite in2="hardAlpha" operator="out"/>
<feColorMatrix type="matrix" values="0 0 0 0 0 0 0 0 0 0 0 0 0 0 0 0 0 0 0.2 0"/>
<feBlend mode="normal" in2="BackgroundImageFix" result="effect1_dropShadow_355_597"/>
<feBlend mode="normal" in="SourceGraphic" in2="effect1_dropShadow_355_597" result="shape"/>
</filter>
</defs>
</svg>
