<svg width="31" height="31" viewBox="0 0 31 31" fill="none" xmlns="http://www.w3.org/2000/svg">
<path d="M19.1836 9.45312C18.957 9.64062 18.7109 9.79688 18.4453 9.92188C18.1797 10.0391 17.8828 10.0977 17.5547 10.0977C17.2266 10.0977 16.9102 10.043 16.6055 9.93359C16.3008 9.82422 16.0352 9.67188 15.8086 9.47656C15.3164 9.05469 15.0703 8.51562 15.0703 7.85938C15.0703 6.85156 15.9141 6.10156 17.6016 5.60938C18.1719 5.4375 18.6406 5.35156 19.0078 5.35156C19.375 5.35156 19.6484 5.39453 19.8281 5.48047C20.0156 5.55859 20.168 5.66406 20.2852 5.79688C20.5195 6.0625 20.6367 6.33594 20.6367 6.61719C20.6367 6.89062 20.6016 7.14063 20.5312 7.36719C20.4688 7.59375 20.375 7.82812 20.25 8.07031C20.125 8.3125 19.9727 8.55469 19.793 8.79688C19.6133 9.03906 19.4102 9.25781 19.1836 9.45312ZM16.2305 22.3555C15.6367 22.6602 15.0586 22.9023 14.4961 23.082C13.9336 23.2695 13.3789 23.3633 12.832 23.3633C12.293 23.3633 11.7305 23.2344 11.1445 22.9766C10.5664 22.7109 10.0508 22.3594 9.59766 21.9219C8.58984 20.9453 8.08594 19.8594 8.08594 18.6641C8.08594 17.5625 8.41406 16.4453 9.07031 15.3125C9.67188 14.2891 10.4375 13.4297 11.3672 12.7344C12.2969 12.0391 13.1602 11.6914 13.957 11.6914C15.0977 11.6914 15.707 12.0117 15.7852 12.6523C15.8086 12.8477 15.8203 13.0742 15.8203 13.332C15.8203 13.5898 15.7578 13.8867 15.6328 14.2227C15.5156 14.5508 15.3594 14.8828 15.1641 15.2188C14.9766 15.5469 14.7656 15.8711 14.5312 16.1914C14.3047 16.5039 14.0859 16.7891 13.875 17.0469C13.4688 17.5391 13.1445 17.8945 12.9023 18.1133C12.9023 18.3789 13.1016 18.6523 13.5 18.9336C13.875 19.1992 14.1914 19.332 14.4492 19.332C14.7148 19.332 15.0234 19.2695 15.375 19.1445C15.7344 19.0195 16.1016 18.8516 16.4766 18.6406C16.8594 18.4297 17.2461 18.1875 17.6367 17.9141C18.0352 17.6406 18.4258 17.3594 18.8086 17.0703L20.9531 15.3945C21.8047 14.7773 22.4961 14.4688 23.0273 14.4688C23.2383 14.4688 23.3984 14.5469 23.5078 14.7031C23.625 14.8516 23.6836 15.0273 23.6836 15.2305C23.6836 15.4336 23.582 15.7148 23.3789 16.0742C23.1758 16.4258 22.8945 16.8164 22.5352 17.2461C22.1836 17.6758 21.7695 18.125 21.293 18.5938C20.8164 19.0625 20.3008 19.5234 19.7461 19.9766C19.1914 20.4297 18.6133 20.8633 18.0117 21.2773C17.418 21.6836 16.8242 22.043 16.2305 22.3555Z" fill="#0F1A1C"/>
<circle cx="15.5" cy="15.5" r="14.5" stroke="#0F1A1C" stroke-width="2"/>
</svg>
