<svg width="66" height="14" viewBox="0 0 66 14" fill="none" xmlns="http://www.w3.org/2000/svg">
<g filter="url(#filter0_d_360_596)">
<path d="M0.816039 13.6799C0.608039 13.6799 0.416039 13.6159 0.240039 13.4879C0.0800391 13.3599 3.91304e-05 13.1759 3.91304e-05 12.9359V7.29594C3.91304e-05 7.02394 0.0800391 6.82394 0.240039 6.69594C0.416039 6.55194 0.608039 6.47994 0.816039 6.47994C0.976039 6.47994 1.12804 6.51994 1.27204 6.59994C1.41604 6.66394 1.52004 6.78394 1.58404 6.95994C1.61604 7.05594 1.63204 7.14394 1.63204 7.22394C1.87204 6.96794 2.18404 6.75994 2.56804 6.59994C2.95204 6.43994 3.32804 6.35994 3.69604 6.35994C4.73604 6.35994 5.50404 6.77594 6.00004 7.60794C6.19204 7.27194 6.50404 6.98394 6.93604 6.74394C7.38404 6.48794 7.92804 6.35994 8.56804 6.35994C9.43204 6.35994 10.12 6.64794 10.632 7.22394C11.144 7.79994 11.4 8.64794 11.4 9.76794V12.9359C11.4 13.1759 11.312 13.3599 11.136 13.4879C10.96 13.6159 10.776 13.6799 10.584 13.6799C10.376 13.6799 10.184 13.6159 10.008 13.4879C9.84804 13.3599 9.76804 13.1759 9.76804 12.9359V9.91194C9.76804 8.53594 9.25604 7.84794 8.23204 7.84794C7.65604 7.84794 7.24004 7.99994 6.98404 8.30394C6.72804 8.60794 6.56804 8.96794 6.50404 9.38394V12.9359C6.50404 13.1759 6.41604 13.3599 6.24004 13.4879C6.06404 13.6159 5.88004 13.6799 5.68804 13.6799C5.48004 13.6799 5.28804 13.6159 5.11204 13.4879C4.95204 13.3599 4.87204 13.1759 4.87204 12.9359V9.91194C4.87204 9.20794 4.73604 8.68794 4.46404 8.35194C4.19204 8.01594 3.82404 7.84794 3.36004 7.84794C2.67204 7.84794 2.20804 8.06394 1.96804 8.49594C1.74404 8.91194 1.63204 9.37594 1.63204 9.88794V12.9359C1.63204 13.1759 1.54404 13.3599 1.36804 13.4879C1.20804 13.6159 1.02404 13.6799 0.816039 13.6799ZM18.6914 13.6799C18.0034 13.6799 17.3874 13.5199 16.8434 13.1999C16.2994 12.8799 15.8754 12.4399 15.5714 11.8799C15.2674 11.3039 15.1154 10.6639 15.1154 9.95994C15.1154 9.27194 15.2674 8.65594 15.5714 8.11194C15.8754 7.56794 16.2994 7.14394 16.8434 6.83994C17.3874 6.51994 18.0034 6.35994 18.6914 6.35994C19.1394 6.35994 19.5394 6.43994 19.8914 6.59994C20.2434 6.74394 20.5474 6.93594 20.8034 7.17594C20.8354 6.95194 20.9314 6.78394 21.0914 6.67194C21.2514 6.54394 21.4274 6.47994 21.6194 6.47994C21.8274 6.47994 22.0114 6.55194 22.1714 6.69594C22.3474 6.82394 22.4354 7.02394 22.4354 7.29594V12.9359C22.4354 13.1759 22.3474 13.3599 22.1714 13.4879C22.0114 13.6159 21.8274 13.6799 21.6194 13.6799C21.4114 13.6799 21.2194 13.6159 21.0434 13.4879C20.8834 13.3599 20.8034 13.1759 20.8034 12.9359V12.8399C20.5474 13.0959 20.2434 13.2959 19.8914 13.4399C19.5394 13.5999 19.1394 13.6799 18.6914 13.6799ZM18.8354 12.1919C19.4434 12.1919 19.9234 11.9919 20.2754 11.5919C20.6274 11.1759 20.8034 10.6319 20.8034 9.95994C20.8034 9.31994 20.6274 8.80794 20.2754 8.42394C19.9234 8.03994 19.4434 7.84794 18.8354 7.84794C18.2114 7.84794 17.7074 8.03994 17.3234 8.42394C16.9394 8.80794 16.7474 9.31994 16.7474 9.95994C16.7474 10.6319 16.9394 11.1759 17.3234 11.5919C17.7074 11.9919 18.2114 12.1919 18.8354 12.1919ZM27.4838 13.6799C27.2758 13.6799 27.0838 13.6159 26.9078 13.4879C26.7478 13.3599 26.6678 13.1759 26.6678 12.9359V7.17594C26.6678 6.90394 26.7478 6.70394 26.9078 6.57594C27.0838 6.43194 27.2758 6.35994 27.4838 6.35994C27.6918 6.35994 27.8758 6.43194 28.0358 6.57594C28.2118 6.70394 28.2998 6.90394 28.2998 7.17594V12.9359C28.2998 13.1759 28.2118 13.3599 28.0358 13.4879C27.8758 13.6159 27.6918 13.6799 27.4838 13.6799ZM27.5078 5.03994C27.2038 5.03994 26.9398 4.94394 26.7158 4.75194C26.5078 4.54394 26.4038 4.29594 26.4038 4.00794C26.4038 3.73594 26.5078 3.50394 26.7158 3.31194C26.9398 3.10394 27.2038 2.99994 27.5078 2.99994C27.7958 2.99994 28.0438 3.10394 28.2518 3.31194C28.4598 3.50394 28.5638 3.73594 28.5638 4.00794C28.5638 4.29594 28.4598 4.54394 28.2518 4.75194C28.0438 4.94394 27.7958 5.03994 27.5078 5.03994ZM33.4692 13.6799C33.2612 13.6799 33.0692 13.6159 32.8932 13.4879C32.7332 13.3599 32.6532 13.1759 32.6532 12.9359V3.81594C32.6532 3.54394 32.7332 3.34394 32.8932 3.21594C33.0692 3.07194 33.2612 2.99994 33.4692 2.99994C33.6772 2.99994 33.8612 3.07194 34.0212 3.21594C34.1972 3.34394 34.2852 3.54394 34.2852 3.81594V12.9359C34.2852 13.1759 34.1972 13.3599 34.0212 13.4879C33.8612 13.6159 33.6772 13.6799 33.4692 13.6799ZM50.8352 7.15194C50.8352 6.92794 50.9072 6.74394 51.0512 6.59994C51.2112 6.43994 51.4112 6.35994 51.6512 6.35994C51.8752 6.35994 52.0672 6.43994 52.2272 6.59994C52.3872 6.74394 52.4672 6.92794 52.4672 7.15194V10.5359C52.4672 11.2559 52.3072 11.8479 51.9872 12.3119C51.6672 12.7759 51.2512 13.1199 50.7392 13.3439C50.2272 13.5679 49.6832 13.6799 49.1072 13.6799C48.5312 13.6799 47.9872 13.5679 47.4752 13.3439C46.9632 13.1199 46.5472 12.7759 46.2272 12.3119C45.9072 11.8479 45.7472 11.2559 45.7472 10.5359V7.15194C45.7472 6.92794 45.8192 6.74394 45.9632 6.59994C46.1232 6.43994 46.3232 6.35994 46.5632 6.35994C46.7872 6.35994 46.9792 6.43994 47.1392 6.59994C47.2992 6.74394 47.3792 6.92794 47.3792 7.15194V10.5359C47.3792 11.1279 47.5552 11.5519 47.9072 11.8079C48.2592 12.0639 48.6592 12.1919 49.1072 12.1919C49.5712 12.1919 49.9712 12.0639 50.3072 11.8079C50.6592 11.5519 50.8352 11.1279 50.8352 10.5359V7.15194ZM59.1539 13.6799C58.6899 13.6799 58.2179 13.6159 57.7379 13.4879C57.2579 13.3759 56.8339 13.1919 56.4659 12.9359C56.2739 12.7599 56.1779 12.5679 56.1779 12.3599C56.1779 12.1519 56.2579 11.9679 56.4179 11.8079C56.5939 11.6479 56.7859 11.5679 56.9939 11.5679C57.1059 11.5679 57.2179 11.5999 57.3299 11.6639C57.6179 11.8399 57.9459 11.9839 58.3139 12.0959C58.6979 12.1919 59.0579 12.2399 59.3939 12.2399C59.7139 12.2399 59.9859 12.1839 60.2099 12.0719C60.4499 11.9599 60.5699 11.7759 60.5699 11.5199C60.5699 11.2639 60.4579 11.0719 60.2339 10.9439C60.0099 10.8159 59.6259 10.7199 59.0819 10.6559C58.8579 10.6239 58.5859 10.5839 58.2659 10.5359C57.9619 10.4879 57.6579 10.3999 57.3539 10.2719C57.0499 10.1439 56.7939 9.95194 56.5859 9.69594C56.3779 9.43994 56.2739 9.09594 56.2739 8.66394C56.2739 7.95994 56.5299 7.39994 57.0419 6.98394C57.5699 6.56794 58.2739 6.35994 59.1539 6.35994C59.6659 6.35994 60.1459 6.42394 60.5939 6.55194C61.0579 6.67994 61.4019 6.83994 61.6259 7.03194C61.8019 7.17594 61.8899 7.34394 61.8899 7.53594C61.8899 7.74394 61.8179 7.92794 61.6739 8.08794C61.5299 8.24794 61.3539 8.32794 61.1459 8.32794C61.0339 8.32794 60.9299 8.30394 60.8339 8.25594C60.5779 8.11194 60.2899 8.00794 59.9699 7.94394C59.6659 7.86394 59.3699 7.82394 59.0819 7.82394C58.7459 7.82394 58.4579 7.87994 58.2179 7.99194C57.9939 8.08794 57.8819 8.24794 57.8819 8.47194C57.8819 8.63194 57.9459 8.77594 58.0739 8.90394C58.2179 9.01594 58.5779 9.11194 59.1539 9.19194C59.4259 9.22394 59.7299 9.27194 60.0659 9.33594C60.4179 9.39994 60.7539 9.50394 61.0739 9.64794C61.3939 9.77594 61.6579 9.98394 61.8659 10.2719C62.0739 10.5599 62.1779 10.9519 62.1779 11.4479C62.1779 11.9599 62.0339 12.3839 61.7459 12.7199C61.4579 13.0399 61.0819 13.2799 60.6179 13.4399C60.1699 13.5999 59.6819 13.6799 59.1539 13.6799Z" fill="#0F1A1C"/>
</g>
<defs>
<filter id="filter0_d_360_596" x="0" y="0" width="65.1779" height="13.6799" filterUnits="userSpaceOnUse" color-interpolation-filters="sRGB">
<feFlood flood-opacity="0" result="BackgroundImageFix"/>
<feColorMatrix in="SourceAlpha" type="matrix" values="0 0 0 0 0 0 0 0 0 0 0 0 0 0 0 0 0 0 127 0" result="hardAlpha"/>
<feOffset dx="2" dy="-2"/>
<feGaussianBlur stdDeviation="0.5"/>
<feComposite in2="hardAlpha" operator="out"/>
<feColorMatrix type="matrix" values="0 0 0 0 0 0 0 0 0 0 0 0 0 0 0 0 0 0 0.2 0"/>
<feBlend mode="normal" in2="BackgroundImageFix" result="effect1_dropShadow_360_596"/>
<feBlend mode="normal" in="SourceGraphic" in2="effect1_dropShadow_360_596" result="shape"/>
</filter>
</defs>
</svg>
